# xmcd
#
# Track frame offsets:
#	150
#	15800
#	31630
#	39852
#
# Disc length: 711 seconds
#
# Revision: 4
# Processed by: cddbd v1.5.2PL0 Copyright (c) Steve Scherf et al.
# Submitted via: audiograbber 1.83.01
#
DISCID=1502c504
DTITLE=Will Oldham - Western Music [EP]
DYEAR=1997
DGENRE=Americana
TTITLE0=Always Bathing In The Evening
TTITLE1=Western Song For J.L.L.
TTITLE2=Three Photographs
TTITLE3=Jump In Jump In, Come In Come In
EXTD=
EXTT0=
EXTT1=
EXTT2=
EXTT3=
PLAYORDER=
